<svg width="172" height="33" viewBox="0 0 172 33" fill="none" xmlns="http://www.w3.org/2000/svg">
<path d="M5.715 5H0.54V0.499998H15.84V5H10.665V32H5.715V5ZM18.2366 0.499998H25.5716C28.1216 0.499998 29.9816 1.1 31.1516 2.3C32.3216 3.47 32.9066 5.285 32.9066 7.745V9.68C32.9066 12.95 31.8266 15.02 29.6666 15.89V15.98C30.8666 16.34 31.7066 17.075 32.1866 18.185C32.6966 19.295 32.9516 20.78 32.9516 22.64V28.175C32.9516 29.075 32.9816 29.81 33.0416 30.38C33.1016 30.92 33.2516 31.46 33.4916 32H28.4516C28.2716 31.49 28.1516 31.01 28.0916 30.56C28.0316 30.11 28.0016 29.3 28.0016 28.13V22.37C28.0016 20.93 27.7616 19.925 27.2816 19.355C26.8316 18.785 26.0366 18.5 24.8966 18.5H23.1866V32H18.2366V0.499998ZM24.9866 14C25.9766 14 26.7116 13.745 27.1916 13.235C27.7016 12.725 27.9566 11.87 27.9566 10.67V8.24C27.9566 7.1 27.7466 6.275 27.3266 5.765C26.9366 5.255 26.3066 5 25.4366 5H23.1866V14H24.9866ZM40.211 0.499998H46.916L52.046 32H47.096L46.196 25.745V25.835H40.571L39.671 32H35.081L40.211 0.499998ZM45.611 21.56L43.406 5.99H43.316L41.156 21.56H45.611ZM54.4475 0.499998H59.3975V32H54.4475V0.499998ZM63.1048 0.499998H69.3148L74.1298 19.355H74.2198V0.499998H78.6298V32H73.5448L67.6048 9.005H67.5148V32H63.1048V0.499998Z" fill="white"/>
<path d="M86.1339 0.499998H92.8389L97.9689 32H93.0189L92.1189 25.745V25.835H86.4939L85.5939 32H81.0039L86.1339 0.499998ZM91.5339 21.56L89.3289 5.99H89.2389L87.0789 21.56H91.5339ZM107.258 32.45C104.888 32.45 103.073 31.775 101.813 30.425C100.583 29.075 99.9675 27.17 99.9675 24.71V7.79C99.9675 5.33 100.583 3.425 101.813 2.075C103.073 0.724999 104.888 0.0499983 107.258 0.0499983C109.628 0.0499983 111.428 0.724999 112.658 2.075C113.918 3.425 114.548 5.33 114.548 7.79V11.12H109.868V7.475C109.868 5.525 109.043 4.55 107.393 4.55C105.743 4.55 104.918 5.525 104.918 7.475V25.07C104.918 26.99 105.743 27.95 107.393 27.95C109.043 27.95 109.868 26.99 109.868 25.07V20.255H114.548V24.71C114.548 27.17 113.918 29.075 112.658 30.425C111.428 31.775 109.628 32.45 107.258 32.45ZM121.379 5H116.204V0.499998H131.504V5H126.329V32H121.379V5ZM133.901 0.499998H138.851V32H133.901V0.499998ZM142.558 0.499998H156.058V5H147.508V13.325H154.303V17.825H147.508V27.5H156.058V32H142.558V0.499998ZM158.906 0.499998H172.001V5H163.856V13.775H170.246V18.275H163.856V32H158.906V0.499998Z" fill="#93B239"/>
</svg>
